<svg xmlns="http://www.w3.org/2000/svg" width="256" height="256"><g stroke-width="0" stroke-miterlimit="10" fill="none" style="stroke:none;stroke-width:0;stroke-dasharray:none;stroke-linecap:butt;stroke-linejoin:miter;stroke-miterlimit:10;fill:none;fill-rule:nonzero;opacity:1"><path d="M103.361 101.219v-9.831a75.878 75.878 0 00-10.298-.75c-42.144 0-76.431 34.292-76.431 76.436 0 25.851 12.92 48.737 32.63 62.575a76.126 76.126 0 01-20.525-52.038c0-41.545 33.313-75.423 74.624-76.392" fill="#00f2ea"/><path d="M105.165 212.514c18.805 0 34.142-14.959 34.842-33.601l.064-166.415h30.403a57.579 57.579 0 01-.98-10.537h-41.525l-.07 166.42c-.692 18.637-16.037 33.59-34.836 33.59a34.644 34.644 0 01-16.194-4.007 34.852 34.852 0 0028.296 14.55M227.263 68.987V59.74a57.407 57.407 0 01-31.458-9.352 57.786 57.786 0 0031.464 18.6" fill="#00f2ea"/><path d="M195.805 50.379a57.52 57.52 0 01-14.209-37.873h-11.125a57.877 57.877 0 0025.334 37.873M93.063 132.162c-19.27.022-34.884 15.637-34.907 34.906a34.926 34.926 0 0018.707 30.899 34.67 34.67 0 01-6.604-20.356c.02-19.27 15.634-34.89 34.906-34.912 3.596 0 7.044.593 10.299 1.616v-42.393a75.878 75.878 0 00-10.299-.75c-.605 0-1.201.033-1.8.044v32.562a34.39 34.39 0 00-10.302-1.616" fill="#ff004f"/><path d="M227.263 68.987v32.274c-21.535 0-41.48-6.887-57.772-18.578v84.388c0 42.144-34.282 76.431-76.425 76.431-16.287 0-31.389-5.14-43.802-13.855a76.208 76.208 0 0055.901 24.392c42.144 0 76.431-34.288 76.431-76.426V93.225a98.755 98.755 0 0057.772 18.578V70.267a57.7 57.7 0 01-12.108-1.288" fill="#ff004f"/><path d="M169.488 167.068V82.68a98.735 98.735 0 0057.772 18.578v-32.27a57.784 57.784 0 01-31.458-18.61 57.877 57.877 0 01-25.333-37.872h-30.4l-.065 166.415c-.697 18.637-16.037 33.596-34.842 33.596A34.86 34.86 0 0176.87 197.97a34.93 34.93 0 01-18.713-30.899c.023-19.27 15.637-34.884 34.907-34.906 3.59 0 7.038.588 10.298 1.616v-32.562c-41.311.969-74.624 34.847-74.624 76.392 0 20.09 7.806 38.379 20.524 52.038a75.971 75.971 0 0043.802 13.85c42.146 0 76.425-34.287 76.425-76.43" fill="#000"/></g></svg>